<?xml version="1.0" encoding="UTF-8" standalone="no"?>
<!DOCTYPE svg PUBLIC "-//W3C//DTD SVG 1.1//EN" "http://www.w3.org/Graphics/SVG/1.1/DTD/svg11.dtd">

<!-- Created with Vectornator (http://vectornator.io/) -->
<svg height="100%" stroke-miterlimit="10" style="fill-rule:nonzero;clip-rule:evenodd;stroke-linecap:round;stroke-linejoin:round;" version="1.1" viewBox="0 0 716.92 682.323" width="100%" xml:space="preserve" xmlns="http://www.w3.org/2000/svg" xmlns:vectornator="http://vectornator.io" xmlns:xlink="http://www.w3.org/1999/xlink">
<metadata>
<vectornator:setting key="IsTimeLapseWatermarkDisabled" value="false"/>
<vectornator:setting key="UndoHistoryDisabled" value="true"/>
<vectornator:setting key="VNDimensionsVisible" value="true"/>
<vectornator:setting key="VNSnapToGuides" value="true"/>
<vectornator:setting key="WDCMYKEnabledKey" value="false"/>
<vectornator:setting key="WDDisplayWhiteBackground" value="false"/>
<vectornator:setting key="WDDynamicGuides" value="false"/>
<vectornator:setting key="WDGuidesVisible" value="true"/>
<vectornator:setting key="WDIsolateActiveLayer" value="false"/>
<vectornator:setting key="WDOutlineMode" value="false"/>
<vectornator:setting key="WDRulersVisible" value="true"/>
<vectornator:setting key="WDSnapToEdges" value="false"/>
<vectornator:setting key="WDSnapToGrid" value="false"/>
<vectornator:setting key="WDSnapToPoints" value="false"/>
<vectornator:setting key="WDUnits" value="Points"/>
</metadata>
<defs/>
<g id="Untitled" vectornator:layerName="Untitled">
<g opacity="1">
<g opacity="1">
<path d="M609.242 445.872C614.117 427.948 621.699 388.417 605.196 356.748C594.258 335.747 574.3 321.422 545.881 314.165C543.563 313.57 541.698 311.852 540.916 309.59C540.133 307.329 540.537 304.826 541.991 302.925C542.816 296.219 543.191 289.465 543.113 282.708L543.127 281.871C543.363 271.575 543.043 259.582 538.847 248.657C533.065 233.618 521.148 223.915 512.171 218.425C506.204 214.795 499.823 211.895 493.164 209.786C491.495 209.327 479.722 207.157 474.065 206.114C467.88 204.974 464.901 204.414 463.408 202.232C415.638 244.156 359.659 275.67 299.038 294.766C313.221 312.923 322.101 338.39 322.101 366.615C322.301 388.049 316.831 409.155 306.243 427.794C334.257 420.151 364.839 410.003 395.663 386.815C394.631 380.131 394.113 373.378 394.116 366.615C394.116 311.633 427.664 266.903 468.9 266.903C510.135 266.903 543.683 311.633 543.683 366.615C543.683 421.597 510.135 466.326 468.9 466.326C435.626 466.326 407.385 437.186 397.709 397.053C364.881 420.602 324.747 434.767 295.554 442.687C282.519 457.404 265.695 466.326 247.317 466.326C236.295 466.232 225.519 463.061 216.203 457.171C158.625 462.78 105.179 463.048 95.7375 463.048C94.8797 463.048 94.4235 463.046 94.3212 463.046C80.9521 470.084 53.2358 487.084 49.8508 489.777C29.0384 508.556 18.2724 536.032 20.7869 563.951C23.8909 592.296 40.5063 617.392 65.389 631.318C83.9723 641.55 105.09 645.303 127.137 645.488C200.187 634.71 541.308 577.716 609.242 445.872ZM471.659 504.261C448.882 545.427 399.968 572.571 350.256 572.573C346.996 572.573 343.735 572.455 340.472 572.219C335.095 571.826 329.747 571.099 324.461 570.039C280.429 561.206 249.158 531.384 230.68 507.924C226.507 502.626 224.884 497.078 226.108 492.297C227.236 488.023 230.506 484.643 234.742 483.376C237.531 482.736 240.418 482.644 243.241 483.107C312.303 490.239 374.479 490.99 433.325 485.426C436.678 485.108 440.049 484.642 443.424 484.176C448.214 483.517 453.171 482.834 458.059 482.581C464.634 482.27 470.17 484.658 472.716 489.054C475.104 493.185 474.719 498.726 471.659 504.261Z" fill="#8d633a" fill-rule="evenodd" opacity="1" stroke="none"/>
<path d="M609.408 464.173C609.588 464.276 609.753 464.397 609.944 464.485C664.08 489.425 690.44 519.875 688.303 554.99C685.924 594.075 644.47 626.582 604.756 638.491C566.399 649.993 524.431 648.092 483.835 646.261C475.957 645.903 468.125 645.551 460.382 645.296C412.818 643.653 365.384 639.346 318.303 632.394C313.3 631.661 308.046 630.548 302.486 629.368C295.638 627.915 288.674 626.503 281.713 625.632C402.893 596.745 554.436 545.747 609.408 464.173ZM172.533 366.615C172.533 311.633 206.081 266.903 247.317 266.903C264.159 266.903 279.666 274.454 292.181 287.029C292.276 286.993 292.344 286.918 292.443 286.888C384.76 259.071 445.615 206.022 460.844 191.71C455.931 166.684 449.93 141.315 440.517 121.009C425.655 88.8283 402.68 61.0655 373.848 40.4452C342.855 18.3782 293.097-5.35563 280.257 7.51625C278.027 9.75356 277.387 14.2907 278.537 19.6579C279.131 22.4261 279.78 25.1549 280.42 27.8537C284.579 45.3555 288.877 63.4534 275.778 82.2326C273.14 85.9066 270.318 89.4459 267.325 92.8373C261.404 99.7578 256.289 105.737 254.731 114.392C252.432 127.15 254.717 142.178 256.735 155.437C256.775 155.935 256.761 156.436 256.693 156.931C270.803 158.326 306.886 155.851 335.65 140.078C337.137 139.26 338.949 139.298 340.401 140.179C341.852 141.06 342.723 142.649 342.684 144.347C342.645 146.044 341.703 147.592 340.212 148.406C315.85 161.767 285.117 166.659 265.202 166.661C259.437 166.878 253.674 166.22 248.107 164.708C235.804 169.635 196.84 187.65 179.317 224.049C167.553 248.481 167.516 276.843 179.21 308.345C179.936 310.303 179.766 312.479 178.747 314.301C177.729 316.122 175.962 317.405 173.915 317.812C173.558 317.883 136.774 325.646 116.093 358.152C100.857 382.102 97.8102 413.538 107.047 451.586L107.047 451.59C107.186 452.205 107.243 452.836 107.215 453.466C126.151 453.222 163.77 452.277 204.936 448.678C185.387 430.673 172.533 400.622 172.533 366.615Z" fill="#754c29" fill-rule="evenodd" opacity="1" stroke="none"/>
<path d="M283.326 367.802C283.326 395.992 267.382 418.844 247.715 418.844C228.047 418.844 212.104 395.992 212.104 367.802C212.104 339.612 228.047 316.759 247.715 316.759C267.382 316.759 283.326 339.612 283.326 367.802ZM469.296 418.844C488.963 418.844 504.907 395.992 504.907 367.802C504.907 339.612 488.963 316.759 469.296 316.759C449.628 316.759 433.685 339.612 433.685 367.802C433.685 395.992 449.628 418.844 469.296 418.844ZM471.659 504.261C448.882 545.427 399.968 572.571 350.256 572.573C346.996 572.573 343.735 572.455 340.472 572.219C335.095 571.826 329.747 571.099 324.461 570.039C280.429 561.206 249.158 531.384 230.68 507.924C226.507 502.626 224.884 497.078 226.108 492.297C227.235 488.023 230.506 484.643 234.742 483.376C237.531 482.736 240.417 482.644 243.241 483.107C312.303 490.239 374.479 490.99 433.325 485.426C436.678 485.108 440.049 484.642 443.425 484.176C448.214 483.517 453.171 482.834 458.059 482.581C464.634 482.27 470.17 484.658 472.716 489.054C475.104 493.185 474.719 498.726 471.659 504.261ZM468.607 491.43C466.688 488.11 462.093 487.116 458.3 487.324C453.616 487.566 448.766 488.233 444.074 488.88C440.628 489.355 437.193 489.828 433.771 490.15C374.609 495.752 312.127 494.989 242.75 487.832C241.518 487.683 240.28 487.598 239.04 487.575C238.031 487.556 237.025 487.679 236.049 487.939C233.438 488.746 231.422 490.835 230.708 493.473C229.563 497.948 232.535 502.605 234.408 504.984C252.395 527.821 282.78 556.836 325.398 565.384C330.488 566.404 335.637 567.106 340.815 567.484C391.195 571.15 444.468 543.595 467.504 501.961C469.706 497.982 470.114 494.045 468.607 491.43ZM538.936 366.615C538.936 419.061 507.58 461.578 468.9 461.578C437.246 461.578 410.525 433.089 401.852 394.001C401.264 391.352 400.738 388.666 400.321 385.925C399.349 379.534 398.862 373.079 398.865 366.615C398.865 314.168 430.221 271.651 468.9 271.651C507.58 271.651 538.936 314.168 538.936 366.615ZM534.187 366.615C534.187 316.87 504.901 276.4 468.9 276.4C432.899 276.4 403.612 316.87 403.612 366.615C403.612 416.359 432.899 456.83 468.9 456.83C504.901 456.83 534.187 416.359 534.187 366.615ZM317.355 366.615C317.646 388.904 311.477 410.801 299.592 429.66C296.573 434.287 293.106 438.606 289.242 442.555C277.546 454.447 263.064 461.578 247.319 461.578C238.02 461.524 228.89 459.082 220.806 454.486C217.51 452.625 214.382 450.48 211.459 448.076C191.016 431.492 177.284 401.266 177.284 366.615C177.284 314.168 208.64 271.651 247.319 271.651C263.038 271.651 277.498 278.759 289.185 290.616C290.901 292.356 292.552 294.196 294.14 296.136C308.361 313.517 317.354 338.611 317.355 366.615ZM312.604 366.615C312.604 316.87 283.318 276.4 247.317 276.4C211.316 276.4 182.03 316.87 182.03 366.615C182.03 416.359 211.316 456.83 247.317 456.83C283.318 456.83 312.604 416.359 312.604 366.615Z" fill="#010101" fill-rule="evenodd" opacity="1" stroke="none"/>
</g>
</g>
</g>
</svg>
