<svg xmlns="http://www.w3.org/2000/svg" stroke-miterlimit="10" viewBox="0 0 716.92 682.323" fill-rule="evenodd" stroke-linecap="round" stroke-linejoin="round" xmlns:v="https://vecta.io/nano"><path d="M315.342 375.6c0-48.727-28.688-88.371-63.953-88.371s-63.953 39.644-63.953 88.371 28.688 88.372 63.953 88.372 63.953-39.643 63.953-88.372zm-98.449 1.164c0-27.614 15.617-49.999 34.883-49.999s34.884 22.385 34.884 49.999-15.618 50-34.884 50-34.883-22.385-34.883-50zm251.551-89.535c-35.265 0-63.953 39.644-63.953 88.371s28.688 88.372 63.953 88.372 63.953-39.644 63.953-88.372-28.688-88.371-63.953-88.371zm.386 139.535c-19.266 0-34.884-22.385-34.884-50s15.618-49.999 34.884-49.999 34.883 22.385 34.883 49.999-15.618 50-34.883 50zm-2.694 72.264c1.259 2.176.259 5.574-1.099 8.026-22.143 40.03-73.328 66.488-121.897 62.995a119.91 119.91 0 0 1-14.812-2.021h-.005c-41.051-8.235-70.38-36.265-87.754-58.325-1.262-1.604-4.106-5.719-3.202-9.257a5.5 5.5 0 0 1 3.629-3.766 8.36 8.36 0 0 1 2.281-.268 32.97 32.97 0 0 1 3.397.245c68.128 7.027 129.483 7.781 187.581 2.272 3.384-.318 6.786-.786 10.193-1.259 4.755-.654 9.248-1.271 13.731-1.503 2.847-.155 6.599.518 7.957 2.861z" fill="#fff"/><path d="M600.622 462.602l.207-.76c.2-.532 20.08-54.528-.945-94.853-10.397-19.94-29.438-33.571-56.586-40.507l-.032-.009a9.31 9.31 0 0 1-5.437-14.162 163.14 163.14 0 0 0 .981-18.932l.019-.84c.227-9.857-.073-21.321-4.043-31.645-5.423-14.126-16.683-23.279-25.168-28.471-5.688-3.456-11.769-6.22-18.114-8.23-1.644-.431-13.34-2.589-18.337-3.511-5.967-1.1-9.769-1.812-11.843-4.549a449.31 449.31 0 0 1-159.23 89.074c13.883 17.785 22.55 42.758 22.55 70.393.249 21.89-5.572 43.421-16.819 62.202 27.381-8.291 61.332-21.706 88.876-42.414-1.01-6.547-1.516-13.163-1.513-19.787 0-53.856 32.862-97.674 73.256-97.674s73.255 43.818 73.255 97.673-32.862 97.675-73.255 97.675c-32.594 0-60.272-28.537-69.75-67.849-32.144 23.049-71.428 36.92-100.013 44.683-12.772 14.434-29.278 23.166-47.292 23.166a58.01 58.01 0 0 1-30.587-8.956c-50.934 4.958-98.542 5.65-114.064 5.737-9.585 4.301-42.99 24.641-47.354 28.023a84.9 84.9 0 0 0-27.584 70.59c2.96 27.008 18.792 50.919 42.501 64.189 23.148 12.745 50.525 15.074 78.73 12.919 96.436-15.581 375.939-69.745 447.592-183.175zM473.177 511.56c-22.711 41.048-71.457 68.114-120.976 68.119-3.247 0-6.492-.118-9.733-.355-5.365-.392-10.701-1.118-15.975-2.175h.004c-34.693-6.959-66.933-28.293-93.231-61.687-4.547-5.773-6.291-11.923-4.91-17.324a14.82 14.82 0 0 1 10.069-10.397c3.018-.713 6.146-.827 9.208-.336 67.509 6.959 128.26 7.704 185.745 2.267 3.252-.309 6.523-.763 9.798-1.213 4.742-.654 9.638-1.331 14.521-1.585 7.358-.382 13.563 2.421 16.497 7.503 2.752 4.77 2.385 11.029-1.017 17.183zm207.866 48.424c-2.271 37.227-42.056 68.277-80.187 79.71-37.205 11.155-78.12 9.298-117.696 7.517l-22.992-.949a1246.13 1246.13 0 0 1-138.912-12.609c-4.829-.709-9.934-1.794-15.344-2.939-4.826-1.025-9.712-2.051-14.621-2.875 116.657-28.314 259.562-77.332 313.517-154.737.267.175.543.335.826.481 52.062 23.992 77.434 53.062 75.409 86.401zm-564.81-101.73c-8.875-36.592-6-66.751 8.539-89.644 19.69-30.995 54.837-38.467 55.164-38.535 2.675-.529 4.983-2.205 6.315-4.584s1.552-5.223.603-7.78c-11.219-30.232-11.219-57.39.005-80.723 18.927-39.362 64.18-56.383 69.254-58.186 4.231.672 8.511.983 12.795.928 19.508 0 49.614-4.792 73.473-17.877a4.65 4.65 0 0 0 .185-8.059 4.65 4.65 0 0 0-4.654-.099c-26.654 14.615-59.726 17.581-74.937 16.696a9.18 9.18 0 0 0-.063-2.002c-1.948-12.814-4.16-27.335-1.976-39.444 1.422-7.858 6.01-13.223 11.814-20.013 2.984-3.38 5.796-6.907 8.426-10.57 13.431-19.252 8.898-38.322 4.897-55.148l-1.836-7.969c-.931-4.347-.513-8.178 1.063-9.761 11.051-11.103 59.103 11.449 88.681 32.506 27.914 19.964 50.158 46.843 64.548 78 9.296 20.055 15.19 45.342 20.02 70.137-17.725 16.272-76.13 65.218-162.956 91.381l.119.395c-12.316-12.521-27.676-19.976-44.323-19.976-40.394 0-73.256 43.818-73.256 97.674 0 33.302 12.574 62.751 31.715 80.39-38.648 3.382-74.164 4.379-93.378 4.665.027-.795-.05-1.59-.228-2.366v-.004l-.009-.032z" fill="#845932"/><path d="M251.776 326.765c19.266 0 34.884 22.385 34.884 49.999s-15.618 50-34.884 50-34.883-22.385-34.883-50 15.617-49.999 34.883-49.999zm447.835 234.35c-2.916 47.865-50.467 83.525-93.413 96.402-25.409 7.617-51.735 9.657-78.039 9.657-15.348 0-30.686-.695-45.839-1.381l-22.765-.936a1263.85 1263.85 0 0 1-140.997-12.8c-5.414-.79-11.051-1.989-16.506-3.147-12.15-2.576-24.714-5.246-35.324-3.647-12.587 1.898-25.918 4.614-40.03 7.485-52.98 10.801-113.036 23.019-161.373-3.593a101.52 101.52 0 0 1-18.091-165.156c2.884-2.571 20.135-13.077 28.039-17.765 9.72-5.764 16.361-9.465 21.052-11.787-7.762-38.221-3.434-70.502 12.895-96.052 17.097-26.74 42.837-38.808 56.972-43.682-9.693-31.513-8.371-60.378 3.97-85.932 18.654-38.645 57.049-58.199 73.255-65.003-1.694-11.996-3.043-25.645-.785-38.14 2.312-12.813 9.574-21.307 15.983-28.797 2.612-3.057 5.083-5.945 7.3-9.125 8.666-12.414 5.75-24.675 2.057-40.198l-1.921-8.371c-2.326-10.824-.109-20.59 6.068-26.794 28.157-28.27 104.092 24.382 112.654 30.48a216.54 216.54 0 0 1 70.635 85.335c10.079 21.739 16.311 48.283 21.375 74.264l20.376 4.038c7.766 2.461 15.208 5.846 22.166 10.083 15.697 9.602 27.052 22.625 32.83 37.668 5.16 13.427 5.528 27.757 5.269 38.744l-.009.696c-.113 7.576-.341 13.149-.713 17.323 27.925 8.975 47.992 24.923 59.729 47.502 19.74 37.972 9.843 83.434 4.465 101.766 54.673 26.971 81.145 60.879 78.715 100.863zM116.233 458.254l.009.032v.004c.178.776.255 1.571.228 2.366 19.214-.286 54.73-1.283 93.378-4.665-19.141-17.639-31.715-47.088-31.715-80.391 0-53.855 32.862-97.673 73.256-97.673 16.647 0 32.007 7.455 44.323 19.976l-.119-.395c86.826-26.163 145.231-75.109 162.956-91.381-4.83-24.795-10.724-50.082-20.02-70.138a197.93 197.93 0 0 0-64.548-77.999c-29.578-21.057-77.63-43.609-88.681-32.506-1.576 1.583-1.994 5.414-1.063 9.761l1.836 7.969c4.001 16.826 8.534 35.897-4.897 55.148a134.71 134.71 0 0 1-8.426 10.57c-5.804 6.79-10.392 12.155-11.814 20.013-2.184 12.109.028 26.63 1.976 39.443.094.664.115 1.335.063 2.003 15.211.885 48.283-2.081 74.937-16.696a4.65 4.65 0 0 1 6.891 4.182 4.65 4.65 0 0 1-2.422 3.975c-23.859 13.086-53.965 17.878-73.473 17.878-4.284.055-8.564-.256-12.795-.928-5.074 1.802-50.327 18.824-69.254 58.186-11.224 23.333-11.224 50.491-.005 80.723.949 2.556.728 5.4-.603 7.78s-3.64 4.055-6.315 4.584c-.327.068-35.474 7.54-55.164 38.535-14.539 22.892-17.414 53.052-8.539 89.644zm135.156-171.025c-35.265 0-63.953 39.644-63.953 88.371s28.688 88.372 63.953 88.372 63.953-39.643 63.953-88.372-28.688-88.371-63.953-88.371zm349.233 175.373c.072-.253.112-.509.207-.76.2-.532 20.08-54.528-.945-94.853-10.397-19.94-29.438-33.571-56.586-40.507l-.032-.009a9.31 9.31 0 0 1-5.437-14.162 163.14 163.14 0 0 0 .981-18.932l.019-.84c.227-9.857-.073-21.321-4.043-31.645-5.423-14.126-16.683-23.279-25.168-28.471-5.688-3.456-11.769-6.22-18.114-8.23-1.644-.431-13.34-2.589-18.337-3.511-5.967-1.1-9.769-1.812-11.843-4.549a449.31 449.31 0 0 1-159.23 89.074c13.883 17.785 22.55 42.758 22.55 70.393.249 21.89-5.572 43.421-16.819 62.202 27.381-8.291 61.332-21.706 88.876-42.414-1.01-6.547-1.516-13.163-1.513-19.787 0-53.856 32.862-97.674 73.256-97.674s73.255 43.818 73.255 97.673-32.862 97.675-73.255 97.675c-32.594 0-60.272-28.537-69.75-67.849-32.144 23.049-71.428 36.92-100.013 44.683-12.772 14.434-29.278 23.166-47.292 23.166a58.01 58.01 0 0 1-30.587-8.956c-50.934 4.958-98.542 5.65-114.064 5.737-9.585 4.301-42.99 24.641-47.354 28.023a84.9 84.9 0 0 0-27.584 70.59c2.96 27.008 18.792 50.919 42.501 64.189 23.148 12.744 50.525 15.074 78.731 12.918 96.435-15.58 375.938-69.744 447.591-183.174zm-132.178 1.37c35.265 0 63.953-39.643 63.953-88.372s-28.688-88.371-63.953-88.371-63.953 39.644-63.953 88.371 28.688 88.372 63.953 88.372zm137.19 9.611a8.97 8.97 0 0 1-.826-.481c-53.955 77.405-196.86 126.423-313.517 154.737 4.909.824 9.795 1.85 14.621 2.875 5.41 1.145 10.516 2.23 15.344 2.939a1246.13 1246.13 0 0 0 138.912 12.609l22.992.949c39.576 1.78 80.491 3.638 117.696-7.517 38.131-11.433 77.916-42.483 80.187-79.71 2.025-33.339-23.347-62.409-75.409-86.401zm-136.805-46.819c19.266 0 34.884-22.385 34.884-50s-15.618-49.999-34.884-49.999-34.883 22.385-34.883 49.999 15.618 50 34.883 50zm5.365 67.613c2.752 4.77 2.385 11.029-1.017 17.183-22.711 41.048-71.457 68.114-120.976 68.119-3.247 0-6.492-.118-9.733-.355-5.365-.392-10.701-1.118-15.975-2.175h.004c-34.693-6.959-66.933-28.293-93.231-61.687-4.547-5.773-6.291-11.923-4.91-17.324a14.82 14.82 0 0 1 10.069-10.397c3.018-.713 6.146-.827 9.208-.336 67.509 6.959 128.26 7.704 185.745 2.267 3.253-.309 6.523-.763 9.798-1.213 4.742-.654 9.638-1.331 14.521-1.585 7.358-.382 13.563 2.421 16.497 7.503zm-8.058 4.651c-1.358-2.343-5.11-3.016-7.957-2.861-4.483.232-8.976.849-13.731 1.503-3.407.473-6.809.941-10.193 1.259-58.098 5.509-119.453 4.755-187.581-2.272-1.128-.14-2.261-.222-3.397-.245-.769-.016-1.537.074-2.281.268a5.5 5.5 0 0 0-3.629 3.766c-.904 3.538 1.94 7.653 3.202 9.257 17.374 22.061 46.703 50.09 87.754 58.325h.005a119.91 119.91 0 0 0 14.812 2.021c48.569 3.493 99.754-22.965 121.897-62.995 1.358-2.452 2.358-5.85 1.099-8.026z" fill="#231f20"/></svg>